<?xml version="1.0" encoding="UTF-8" standalone="no"?>
<!-- Created with Inkscape (http://www.inkscape.org/) -->

<svg
   xmlns:dc="http://purl.org/dc/elements/1.1/"
   xmlns:cc="http://creativecommons.org/ns#"
   xmlns:rdf="http://www.w3.org/1999/02/22-rdf-syntax-ns#"
   xmlns:svg="http://www.w3.org/2000/svg"
   xmlns="http://www.w3.org/2000/svg"
   xmlns:sodipodi="http://sodipodi.sourceforge.net/DTD/sodipodi-0.dtd"
   xmlns:inkscape="http://www.inkscape.org/namespaces/inkscape"
   width="28.442709mm"
   height="39.712612mm"
   viewBox="0 0 28.442709 39.712612"
   version="1.1"
   id="svg1756"
   inkscape:version="0.92.4 (5da689c313, 2019-01-14)"
   sodipodi:docname="Length_w_name.svg">
  <defs
     id="defs1750">
    <marker
       inkscape:stockid="Arrow2Lend"
       orient="auto"
       refY="0"
       refX="0"
       id="Arrow2Lend-6-4-7-2-1-03-4"
       style="overflow:visible"
       inkscape:isstock="true">
      <path
         inkscape:connector-curvature="0"
         id="path1427-3-2-6-5-2-1-1"
         style="fill:#ffffff;fill-opacity:1;fill-rule:evenodd;stroke:#ffffff;stroke-width:0.625;stroke-linejoin:round;stroke-opacity:1"
         d="M 8.7185878,4.0337352 -2.2072895,0.01601326 8.7185884,-4.0017078 c -1.7454984,2.3720609 -1.7354408,5.6174519 -6e-7,8.035443 z"
         transform="matrix(-1.1,0,0,-1.1,-1.1,0)" />
    </marker>
    <marker
       inkscape:stockid="Arrow2Lend"
       orient="auto"
       refY="0"
       refX="0"
       id="Arrow2Lend-5-6-4-3-3-1"
       style="overflow:visible"
       inkscape:isstock="true">
      <path
         inkscape:connector-curvature="0"
         id="path1427-9-7-8-7-4-9"
         style="fill:#ffffff;fill-opacity:1;fill-rule:evenodd;stroke:#ffffff;stroke-width:0.625;stroke-linejoin:round;stroke-opacity:1"
         d="M 8.7185878,4.0337352 -2.2072895,0.01601326 8.7185884,-4.0017078 c -1.7454984,2.3720609 -1.7354408,5.6174519 -6e-7,8.035443 z"
         transform="matrix(-1.1,0,0,-1.1,-1.1,0)" />
    </marker>
    <clipPath
       clipPathUnits="userSpaceOnUse"
       id="clipPath1386-8">
      <ellipse
         style="opacity:0.42699998;fill:#000000;fill-opacity:0.23529412;stroke:#ffffff;stroke-width:0.04119413;stroke-linejoin:round;stroke-miterlimit:4;stroke-dasharray:none;stroke-dashoffset:0;stroke-opacity:1;paint-order:markers fill stroke"
         id="ellipse1388-2"
         cx="-55.987724"
         cy="125.20982"
         rx="19.604416"
         ry="6.6114864" />
    </clipPath>
  </defs>
  <sodipodi:namedview
     id="base"
     pagecolor="#ffffff"
     bordercolor="#666666"
     borderopacity="1.0"
     inkscape:pageopacity="0.0"
     inkscape:pageshadow="2"
     inkscape:zoom="2.8"
     inkscape:cx="-6.4398689"
     inkscape:cy="77.223563"
     inkscape:document-units="mm"
     inkscape:current-layer="layer1"
     showgrid="false"
     inkscape:window-width="1920"
     inkscape:window-height="1001"
     inkscape:window-x="-9"
     inkscape:window-y="-9"
     inkscape:window-maximized="1" />
  <metadata
     id="metadata1753">
    <rdf:RDF>
      <cc:Work
         rdf:about="">
        <dc:format>image/svg+xml</dc:format>
        <dc:type
           rdf:resource="http://purl.org/dc/dcmitype/StillImage" />
        <dc:title></dc:title>
      </cc:Work>
    </rdf:RDF>
  </metadata>
  <g
     inkscape:label="Layer 1"
     inkscape:groupmode="layer"
     id="layer1"
     transform="translate(-39.829239,-73.603516)">
    <rect
       style="opacity:0.95999995;fill:#000000;fill-opacity:0.58039216;stroke:none;stroke-width:2.45026398;stroke-linejoin:round;stroke-miterlimit:4;stroke-dasharray:none;stroke-dashoffset:0;stroke-opacity:1;paint-order:markers fill stroke"
       id="rect1262-0-5-9-0-6-5-8-1-3-6-1"
       width="28.442709"
       height="39.712612"
       x="39.829239"
       y="73.603516"
       ry="4.3467264"
       rx="4.3467264" />
    <path
       style="fill:#ffffff;fill-opacity:0.58823529;stroke:#000000;stroke-width:0.14942305px;stroke-linecap:butt;stroke-linejoin:miter;stroke-opacity:1"
       d="m 49.524761,78.878937 c 0,0 0.113206,0.94338 -0.264144,1.58487 -0.37735,0.6415 -2.372591,5.0046 -3.009369,6.55646 -0.886773,2.06127 -3.426643,11.28847 -3.443319,11.51862 0.0067,0.22346 1.198086,0.90563 2.235799,0.96224 1.037713,0.0566 -0.330182,0.518853 1.037713,0.575453 1.367895,0.0566 1.499967,-0.396213 1.726377,-0.358483 0.226411,0.0377 2.150896,1.405633 2.754657,1.179223 0.603759,-0.22641 0.67923,0.23584 0.896207,-0.60376 0.169808,-0.325463 1.919769,0.48113 2.306553,0.32075 0.386784,-0.16037 0.259428,-0.721683 0.580176,-0.797153 0.665078,-0.10849 0.141506,0.580173 0.471688,0.749983 0.330182,0.16981 2.575415,0.46225 3.047102,-0.0849 0.471688,-0.547163 0.330182,0.22641 0.528292,0.33961 0.198107,0.11321 2.311269,-0.0471 2.64145,-0.46226 0.330181,-0.415083 1.575437,0.14151 2.03769,-0.27357 0.462255,-0.415093 0.09434,-0.499993 0.320749,-0.584893 0.22641,-0.0849 1.782979,-0.27358 1.96222,-0.71697 0.179242,-0.44339 -0.06604,-0.46225 0.0849,-0.49999 0.15094,-0.0377 0.325465,0.0708 0.481122,-0.13207 0.24824,-0.43127 0.06656,-0.9492 -0.07547,-1.36789 -0.240561,-0.73584 -4.528203,-13.45254 -4.792348,-13.96196 -0.264144,-0.50943 -1.150918,-1.92449 -1.150918,-1.92449 0,0 -0.232127,-1.66199 0.008,-1.87545 0.266827,-0.2735 -5.630534,-0.25658 -5.687137,-0.27544 -0.0566,-0.0189 -3.994149,-0.0636 -4.69801,0.13207 -0.0067,-0.007 -9e-6,0 -9e-6,0 z"
       id="path1312"
       inkscape:connector-curvature="0"
       sodipodi:nodetypes="cccccccccccsccccscccccccccc" />
    <path
       style="fill:none;fill-opacity:0.58823529;stroke:#000000;stroke-width:0.14942305px;stroke-linecap:butt;stroke-linejoin:miter;stroke-opacity:1"
       d="m 49.137978,80.765687 c 0,0 2.130014,1.03771 4.858383,1.03771 2.820712,0 5.905531,-0.88677 5.905531,-0.88677"
       id="path1314"
       inkscape:connector-curvature="0"
       sodipodi:nodetypes="csc" />
    <path
       style="fill:none;fill-opacity:0.58823529;stroke:#000000;stroke-width:0.14942305px;stroke-linecap:butt;stroke-linejoin:miter;stroke-opacity:1"
       d="m 49.222882,82.614697 c 0,0 -2.08004,7.24516 -2.226366,7.79229 -0.16269,0.60831 -1.415064,7.11305 -1.415064,7.11305"
       id="path1318"
       inkscape:connector-curvature="0"
       sodipodi:nodetypes="csc" />
    <path
       style="fill:none;fill-opacity:0.58823529;stroke:#000000;stroke-width:0.14942305px;stroke-linecap:butt;stroke-linejoin:miter;stroke-opacity:1"
       d="m 50.604321,82.577777 c 0,0 -1.739922,7.81034 -2.004067,9.28201 -0.264146,1.47166 -0.943375,6.41495 -0.943375,6.41495"
       id="path1320"
       inkscape:connector-curvature="0" />
    <path
       style="fill:#ffffff;fill-opacity:0.58823529;stroke:#000000;stroke-width:0.14942305px;stroke-linecap:butt;stroke-linejoin:miter;stroke-opacity:1"
       d="m 52.279419,83.369407 c 0,0 -0.905641,12.79217 -0.905641,13.22612 0,0.43395 0.01887,2.13203 0.01887,2.13203"
       id="path1322"
       inkscape:connector-curvature="0" />
    <path
       style="fill:#ffffff;fill-opacity:0.58823529;stroke:#000000;stroke-width:0.14942305px;stroke-linecap:butt;stroke-linejoin:miter;stroke-opacity:1"
       d="m 52.695545,83.359627 c 0,0 -0.905641,12.79217 -0.905641,13.22612 0,0.43396 0.01887,2.13203 0.01887,2.13203"
       id="path1322-1"
       inkscape:connector-curvature="0" />
    <path
       style="fill:#ffffff;fill-opacity:0.58823529;stroke:#000000;stroke-width:0.14942305px;stroke-linecap:butt;stroke-linejoin:miter;stroke-opacity:1"
       d="m 54.166169,83.029787 0.04032,15.7844"
       id="path1339"
       inkscape:connector-curvature="0" />
    <path
       style="fill:#ffffff;fill-opacity:0.58823529;stroke:#000000;stroke-width:0.14942305px;stroke-linecap:butt;stroke-linejoin:miter;stroke-opacity:1"
       d="m 54.860211,99.294477 -0.28017,-16.63666"
       id="path1341"
       inkscape:connector-curvature="0" />
    <path
       style="fill:#ffffff;fill-opacity:0.58823529;stroke:#000000;stroke-width:0.14942305px;stroke-linecap:butt;stroke-linejoin:miter;stroke-opacity:1"
       d="m 57.03485,83.138107 1.227401,15.95625"
       id="path1343"
       inkscape:connector-curvature="0" />
    <path
       style="fill:none;fill-opacity:0.58823529;stroke:#000000;stroke-width:0.14942305px;stroke-linecap:butt;stroke-linejoin:miter;stroke-opacity:1"
       d="m 58.182205,82.897967 c 0,0 1.867788,6.88413 1.974519,8.08485 0.10673,1.20072 1.093989,7.97812 1.093989,7.97812"
       id="path1345"
       inkscape:connector-curvature="0" />
    <path
       style="fill:none;fill-opacity:0.58823529;stroke:#000000;stroke-width:0.14942305px;stroke-linecap:butt;stroke-linejoin:miter;stroke-opacity:1"
       d="m 59.809849,82.684507 c 1.814422,6.03028 1.494231,4.98966 2.054567,7.52452 0.560337,2.53485 1.307452,8.37836 1.307452,8.37836"
       id="path1347"
       inkscape:connector-curvature="0" />
    <path
       style="fill:#ffffff;fill-opacity:0.58823529;stroke:#000000;stroke-width:0.14942305px;stroke-linecap:butt;stroke-linejoin:miter;stroke-opacity:1"
       d="m 60.263454,82.257577 c 2.801682,7.73798 4.989662,15.20914 4.989662,15.20914"
       id="path1349"
       inkscape:connector-curvature="0" />
    <path
       style="fill:#ffffff;fill-opacity:0.58823529;stroke:#000000;stroke-width:0.14942305px;stroke-linecap:butt;stroke-linejoin:miter;stroke-opacity:1"
       d="m 49.577036,78.868877 c 0,0 1.214064,0.76046 4.616107,0.76046 3.789377,0 5.643387,-0.62704 5.643387,-0.62704"
       id="path1351"
       inkscape:connector-curvature="0"
       sodipodi:nodetypes="ccc" />
    <text
       xml:space="preserve"
       style="font-style:normal;font-variant:normal;font-weight:normal;font-stretch:normal;font-size:7.05555534px;line-height:0.5;font-family:Helvetica;-inkscape-font-specification:Helvetica;letter-spacing:0px;word-spacing:0px;fill:#ffffff;fill-opacity:1;stroke:none;stroke-width:0.26458332"
       x="53.97419"
       y="109.38137"
       id="text1353-1-1-9-0-7"><tspan
         sodipodi:role="line"
         x="53.97419"
         y="109.38137"
         style="font-style:normal;font-variant:normal;font-weight:normal;font-stretch:normal;font-size:6.3499999px;line-height:0.89999998;font-family:Helvetica;-inkscape-font-specification:Helvetica;text-align:center;letter-spacing:0px;word-spacing:0px;direction:ltr;text-anchor:middle;fill:#ffffff;fill-opacity:1;stroke-width:0.26458332"
         id="tspan1402-8-24-3-4">Length</tspan></text>
    <g
       id="g1432"
       transform="translate(110.94361,-41.127385)">
      <path
         clip-path="url(#clipPath1386-8)"
         sodipodi:nodetypes="cccccccccccsccccscccccccccc"
         inkscape:connector-curvature="0"
         id="path1312-0"
         d="m -61.428882,120.01125 c 0,0 0.113206,0.94337 -0.264144,1.58487 -0.37735,0.6415 -2.372591,5.0046 -3.009369,6.55645 -0.886773,2.06127 -3.426643,11.28847 -3.443319,11.51863 0.0067,0.22346 1.198086,0.90562 2.235799,0.96223 1.037713,0.0566 -0.330182,0.51885 1.037713,0.57545 1.367895,0.0566 1.499967,-0.3962 1.726377,-0.35848 0.226411,0.0377 2.150896,1.40564 2.754656,1.17923 0.60376,-0.22642 0.679231,0.23584 0.896207,-0.60377 0.169808,-0.32546 1.919769,0.48113 2.306553,0.32076 0.386785,-0.16037 0.259428,-0.72169 0.580176,-0.79716 0.665079,-0.10849 0.141507,0.58018 0.471688,0.74998 0.330182,0.16981 2.575415,0.46225 3.047102,-0.0849 0.471689,-0.54716 0.330182,0.22641 0.528292,0.33962 0.198107,0.1132 2.311269,-0.0471 2.64145,-0.46227 0.330181,-0.41508 1.575437,0.14151 2.03769,-0.27357 0.462255,-0.41509 0.09434,-0.49999 0.320749,-0.58489 0.22641,-0.0849 1.782979,-0.27358 1.96222,-0.71697 0.179242,-0.44338 -0.06604,-0.46224 0.0849,-0.49999 0.15094,-0.0377 0.325465,0.0708 0.481122,-0.13207 0.24824,-0.43127 0.06656,-0.9492 -0.07547,-1.36789 -0.240561,-0.73584 -4.528203,-13.45253 -4.792348,-13.96195 -0.264144,-0.50944 -1.150918,-1.92449 -1.150918,-1.92449 0,0 -0.232127,-1.66199 0.008,-1.87545 0.266826,-0.2735 -5.630535,-0.25658 -5.687138,-0.27544 -0.0566,-0.0189 -3.994149,-0.0636 -4.698009,0.13207 -0.0067,-0.007 -9e-6,0 -9e-6,0 z"
         style="fill:#ffffff;fill-opacity:0.58823529;stroke:#000000;stroke-width:0.14942305px;stroke-linecap:butt;stroke-linejoin:miter;stroke-opacity:1" />
      <g
         id="g1416">
        <path
           style="fill:none;fill-opacity:0.58823529;stroke:#000000;stroke-width:0.14942305px;stroke-linecap:butt;stroke-linejoin:miter;stroke-opacity:1"
           d="m -61.815665,121.898 c 0,0 2.130014,1.0377 4.858383,1.0377 2.820711,0 5.90553,-0.88676 5.90553,-0.88676"
           id="path1314-8"
           inkscape:connector-curvature="0"
           sodipodi:nodetypes="csc" />
        <path
           style="fill:none;fill-opacity:0.58823529;stroke:#000000;stroke-width:0.14942305px;stroke-linecap:butt;stroke-linejoin:miter;stroke-opacity:1"
           d="m -61.730761,123.74701 c 0,0 -2.021575,7.06558 -2.167901,7.61271"
           id="path1318-8"
           inkscape:connector-curvature="0"
           sodipodi:nodetypes="cc" />
        <path
           style="fill:none;fill-opacity:0.58823529;stroke:#000000;stroke-width:0.14942305px;stroke-linecap:butt;stroke-linejoin:miter;stroke-opacity:1"
           d="m -60.349323,123.71009 c 0,0 -1.421105,6.4032 -1.710307,7.87487"
           id="path1320-5"
           inkscape:connector-curvature="0"
           sodipodi:nodetypes="cc" />
        <path
           style="fill:#ffffff;fill-opacity:0.58823529;stroke:#000000;stroke-width:0.14942305px;stroke-linecap:butt;stroke-linejoin:miter;stroke-opacity:1"
           d="m -58.674225,124.50171 c 0,0 -0.471329,6.80993 -0.498473,7.25223"
           id="path1322-7"
           inkscape:connector-curvature="0"
           sodipodi:nodetypes="cc" />
        <path
           style="fill:#ffffff;fill-opacity:0.58823529;stroke:#000000;stroke-width:0.14942305px;stroke-linecap:butt;stroke-linejoin:miter;stroke-opacity:1"
           d="m -58.258099,124.49193 c 0,0 -0.485944,6.88928 -0.500561,7.33158"
           id="path1322-1-9"
           inkscape:connector-curvature="0"
           sodipodi:nodetypes="cc" />
        <path
           style="fill:#ffffff;fill-opacity:0.58823529;stroke:#000000;stroke-width:0.14942305px;stroke-linecap:butt;stroke-linejoin:miter;stroke-opacity:1"
           d="m -56.787475,124.1621 0.02988,7.73499"
           id="path1339-2"
           inkscape:connector-curvature="0"
           sodipodi:nodetypes="cc" />
        <path
           style="fill:#ffffff;fill-opacity:0.58823529;stroke:#000000;stroke-width:0.14942305px;stroke-linecap:butt;stroke-linejoin:miter;stroke-opacity:1"
           d="m -56.227068,131.84911 -0.146534,-8.05899"
           id="path1341-9"
           inkscape:connector-curvature="0"
           sodipodi:nodetypes="cc" />
        <path
           style="fill:#ffffff;fill-opacity:0.58823529;stroke:#000000;stroke-width:0.14942305px;stroke-linecap:butt;stroke-linejoin:miter;stroke-opacity:1"
           d="m -53.918794,124.27041 0.592637,7.60409"
           id="path1343-1"
           inkscape:connector-curvature="0"
           sodipodi:nodetypes="cc" />
        <path
           style="fill:none;fill-opacity:0.58823529;stroke:#000000;stroke-width:0.14942305px;stroke-linecap:butt;stroke-linejoin:miter;stroke-opacity:1"
           d="m -52.771439,124.03028 c 0,0 1.764522,6.42905 1.924406,7.70064"
           id="path1345-9"
           inkscape:connector-curvature="0"
           sodipodi:nodetypes="cc" />
        <path
           style="fill:none;fill-opacity:0.58823529;stroke:#000000;stroke-width:0.14942305px;stroke-linecap:butt;stroke-linejoin:miter;stroke-opacity:1"
           d="m -51.143795,123.81682 c 1.814422,6.03027 1.540464,5.18699 2.1008,7.72185"
           id="path1347-8"
           inkscape:connector-curvature="0"
           sodipodi:nodetypes="cc" />
        <path
           style="fill:#ffffff;fill-opacity:0.58823529;stroke:#000000;stroke-width:0.14942305px;stroke-linecap:butt;stroke-linejoin:miter;stroke-opacity:1"
           d="m -50.69019,123.38989 c 2.433593,6.8496 2.716247,7.89445 2.716247,7.89445"
           id="path1349-4"
           inkscape:connector-curvature="0"
           sodipodi:nodetypes="cc" />
        <path
           style="fill:#ffffff;fill-opacity:0.58823529;stroke:#000000;stroke-width:0.14942305px;stroke-linecap:butt;stroke-linejoin:miter;stroke-opacity:1"
           d="m -61.376607,120.00119 c 0,0 1.214064,0.76046 4.616106,0.76046 3.789378,0 5.643388,-0.62704 5.643388,-0.62704"
           id="path1351-6"
           inkscape:connector-curvature="0"
           sodipodi:nodetypes="ccc" />
      </g>
    </g>
    <path
       style="fill:none;stroke:#ffffff;stroke-width:0.2;stroke-linecap:butt;stroke-linejoin:miter;stroke-miterlimit:4;stroke-dasharray:none;stroke-opacity:1;marker-end:url(#Arrow2Lend-5-6-4-3-3-1)"
       d="M 56.12194,98.408587 V 100.2136"
       id="path1404-0-6-0-2"
       inkscape:connector-curvature="0"
       sodipodi:nodetypes="cc" />
    <path
       style="fill:none;stroke:#ffffff;stroke-width:0.2;stroke-linecap:butt;stroke-linejoin:miter;stroke-miterlimit:4;stroke-dasharray:none;stroke-opacity:1;marker-end:url(#Arrow2Lend-6-4-7-2-1-03-4)"
       d="m 56.121934,92.945187 v -1.80501"
       id="path1404-9-0-5-5-2"
       inkscape:connector-curvature="0"
       sodipodi:nodetypes="cc" />
    <path
       sodipodi:nodetypes="cc"
       style="fill:#ffffff;fill-opacity:1;stroke:#ffffff;stroke-width:0.37509665;stroke-linecap:butt;stroke-linejoin:miter;stroke-miterlimit:4;stroke-dasharray:none;stroke-opacity:1"
       d="m 56.121938,99.861987 v -7.80174"
       id="path3440-1-7-8-8-9"
       inkscape:connector-curvature="0" />
  </g>
</svg>
