<?xml version="1.0" encoding="UTF-8" standalone="no"?>
<!-- Created with Inkscape (http://www.inkscape.org/) -->

<svg
   xmlns:dc="http://purl.org/dc/elements/1.1/"
   xmlns:cc="http://creativecommons.org/ns#"
   xmlns:rdf="http://www.w3.org/1999/02/22-rdf-syntax-ns#"
   xmlns:svg="http://www.w3.org/2000/svg"
   xmlns="http://www.w3.org/2000/svg"
   xmlns:sodipodi="http://sodipodi.sourceforge.net/DTD/sodipodi-0.dtd"
   xmlns:inkscape="http://www.inkscape.org/namespaces/inkscape"
   width="28.442709mm"
   height="43.681362mm"
   viewBox="0 0 28.442709 43.681362"
   version="1.1"
   id="svg12632"
   inkscape:version="0.92.4 (5da689c313, 2019-01-14)"
   sodipodi:docname="Back_Styling_w_name.svg">
  <defs
     id="defs12626">
    <marker
       inkscape:stockid="Arrow2Lend"
       orient="auto"
       refY="0"
       refX="0"
       id="Arrow2Lend-6-4-7-2-1-4"
       style="overflow:visible"
       inkscape:isstock="true">
      <path
         inkscape:connector-curvature="0"
         id="path1427-3-2-6-5-2-5"
         style="fill:#ffffff;fill-opacity:1;fill-rule:evenodd;stroke:#ffffff;stroke-width:0.625;stroke-linejoin:round;stroke-opacity:1"
         d="M 8.7185878,4.0337352 -2.2072895,0.01601326 8.7185884,-4.0017078 c -1.7454984,2.3720609 -1.7354408,5.6174519 -6e-7,8.035443 z"
         transform="matrix(-1.1,0,0,-1.1,-1.1,0)" />
    </marker>
    <marker
       inkscape:stockid="Arrow2Lend"
       orient="auto"
       refY="0"
       refX="0"
       id="Arrow2Lend-5-6-4-3-5"
       style="overflow:visible"
       inkscape:isstock="true">
      <path
         inkscape:connector-curvature="0"
         id="path1427-9-7-8-7-1"
         style="fill:#ffffff;fill-opacity:1;fill-rule:evenodd;stroke:#ffffff;stroke-width:0.625;stroke-linejoin:round;stroke-opacity:1"
         d="M 8.7185878,4.0337352 -2.2072895,0.01601326 8.7185884,-4.0017078 c -1.7454984,2.3720609 -1.7354408,5.6174519 -6e-7,8.035443 z"
         transform="matrix(-1.1,0,0,-1.1,-1.1,0)" />
    </marker>
  </defs>
  <sodipodi:namedview
     id="base"
     pagecolor="#ffffff"
     bordercolor="#666666"
     borderopacity="1.0"
     inkscape:pageopacity="0.0"
     inkscape:pageshadow="2"
     inkscape:zoom="2.56"
     inkscape:cx="-25.822218"
     inkscape:cy="59.946163"
     inkscape:document-units="mm"
     inkscape:current-layer="layer1"
     showgrid="false"
     inkscape:window-width="1920"
     inkscape:window-height="1001"
     inkscape:window-x="-9"
     inkscape:window-y="-9"
     inkscape:window-maximized="1" />
  <metadata
     id="metadata12629">
    <rdf:RDF>
      <cc:Work
         rdf:about="">
        <dc:format>image/svg+xml</dc:format>
        <dc:type
           rdf:resource="http://purl.org/dc/dcmitype/StillImage" />
        <dc:title></dc:title>
      </cc:Work>
    </rdf:RDF>
  </metadata>
  <g
     inkscape:label="Layer 1"
     inkscape:groupmode="layer"
     id="layer1"
     transform="translate(-56.07053,-52.791073)">
    <rect
       style="opacity:0.95999995;fill:#000000;fill-opacity:0.58039216;stroke:none;stroke-width:2.56978464;stroke-linejoin:round;stroke-miterlimit:4;stroke-dasharray:none;stroke-dashoffset:0;stroke-opacity:1;paint-order:markers fill stroke"
       id="rect1262-0-5-9-0-6-5-8-1-3-6"
       width="28.442709"
       height="43.681362"
       x="56.07053"
       y="52.791073"
       ry="4.3467264"
       rx="4.3467264" />
    <text
       xml:space="preserve"
       style="font-style:normal;font-variant:normal;font-weight:normal;font-stretch:normal;font-size:7.05555534px;line-height:0.5;font-family:Helvetica;-inkscape-font-specification:Helvetica;letter-spacing:0px;word-spacing:0px;fill:#ffffff;fill-opacity:1;stroke:none;stroke-width:0.26458332"
       x="69.753418"
       y="86.429482"
       id="text1353-1-1-9-0-3-1-5"><tspan
         sodipodi:role="line"
         x="70.633987"
         y="86.429482"
         style="font-style:normal;font-variant:normal;font-weight:normal;font-stretch:normal;font-size:6.3499999px;line-height:0.89999998;font-family:Helvetica;-inkscape-font-specification:Helvetica;text-align:center;letter-spacing:0px;word-spacing:0px;direction:ltr;text-anchor:middle;fill:#ffffff;fill-opacity:1;stroke-width:0.26458332"
         id="tspan1402-8-24-3-6-1-7">Back </tspan><tspan
         sodipodi:role="line"
         x="69.753418"
         y="92.144478"
         style="font-style:normal;font-variant:normal;font-weight:normal;font-stretch:normal;font-size:6.3499999px;line-height:0.89999998;font-family:Helvetica;-inkscape-font-specification:Helvetica;text-align:center;letter-spacing:0px;word-spacing:0px;direction:ltr;text-anchor:middle;fill:#ffffff;fill-opacity:1;stroke-width:0.26458332"
         id="tspan6394">Styling</tspan></text>
    <path
       style="fill:#ffffff;fill-opacity:0.23529412;stroke:#fffff1;stroke-width:0.40000001;stroke-linecap:butt;stroke-linejoin:miter;stroke-miterlimit:4;stroke-dasharray:none;stroke-opacity:1"
       d="m 64.689854,58.953411 c 0.293705,-0.1905 3.017705,-1.11022 3.017705,-1.11022 l 0.715302,-1.07296 c 0.839494,-0.1987 2.458867,-0.32785 4.013674,-0.01 l 0.794782,1.2816 c 0,0 3.238756,1.47036 3.417582,1.69885 0.178826,0.2285 1.063021,2.05652 1.132569,2.99039 0.06957,0.933881 -0.151156,14.927771 -0.151156,14.927771 l -1.601691,0.028 c 0.0076,-0.61458 0.037,-0.73375 0.037,-0.73375 0.57826,-2.43015 -0.258287,-2.31862 -0.570897,-4.52095 -0.112405,-0.5058 0,-2.21989 -0.02815,-2.5571 -0.02816,-0.33719 -0.298009,-0.82553 -0.298009,-0.82553 0,0 -0.248373,1.52995 -0.0099,2.32475 0.23844,0.79478 0.407333,1.7982 0.94381,3.18908 0.536486,1.39086 -0.427198,3.83484 -0.774918,4.03353 -0.347719,0.1987 -1.043156,0.60603 -4.619688,0.52655 -3.576541,-0.0795 -3.715627,0.17882 -4.510409,-0.576222 -0.794793,-0.755049 -1.21205,-4.132889 -1.291529,-4.33159 -0.07946,-0.19869 1.013348,-3.97393 0.894137,-4.21236 -0.11922,-0.23845 -0.854398,-4.3912 -0.854398,-4.3912 0.221287,1.608721 -0.04142,8.517571 -0.04142,8.517571 0.06393,0.430959 0.07805,0.452879 0.191554,1.20334 0.0805,1.007319 0.09769,1.63887 0.128409,2.33982 l -1.433092,0.154551 -1.025653,-7.249781 c 0,0 -0.148096,-8.47368 0.533907,-10.08787 0.447892,-1.0601 1.390498,-1.53645 1.390498,-1.53645 z"
       id="path12596"
       inkscape:connector-curvature="0"
       sodipodi:nodetypes="ccccccsccscccsscsssscscccsccc" />
    <path
       style="fill:#ffffff;fill-opacity:0.41517861;stroke:#ffffff;stroke-width:0.30000001;stroke-linecap:butt;stroke-linejoin:miter;stroke-miterlimit:4;stroke-dasharray:none;stroke-opacity:1"
       d="m 75.157521,69.088421 0.632244,-3.99019 c 0,0 0.547954,-3.99019 0.4777,-5.57784"
       id="path12598"
       inkscape:connector-curvature="0" />
    <path
       style="fill:none;fill-opacity:0.41517861;stroke:#ffffff;stroke-width:0.30000001;stroke-linecap:butt;stroke-linejoin:miter;stroke-miterlimit:4;stroke-dasharray:none;stroke-opacity:1"
       d="m 64.699561,61.083701 c 0,0 2.03438,-0.9555 5.650662,-0.61772 3.616272,0.33779 2.622788,-0.35765 5.84167,0.71531"
       id="path12600"
       inkscape:connector-curvature="0"
       sodipodi:nodetypes="csc" />
    <path
       style="fill:#ffffff;fill-opacity:0.41517861;stroke:#ffffff;stroke-width:0.30000001;stroke-linecap:butt;stroke-linejoin:miter;stroke-miterlimit:4;stroke-dasharray:none;stroke-opacity:1"
       d="m 64.943198,65.632131 c -0.35269,-1.82305 -0.371106,-2.83181 -0.238855,-4.55219 0.0467,-0.60721 -0.09133,-1.0116 -0.04218,-2.10749"
       id="path12602"
       inkscape:connector-curvature="0"
       sodipodi:nodetypes="csc" />
    <path
       style="fill:#ffffff;fill-opacity:0.41517861;stroke:#ffffff;stroke-width:0.30000001;stroke-linecap:butt;stroke-linejoin:miter;stroke-miterlimit:4;stroke-dasharray:none;stroke-opacity:1"
       d="m 67.697616,57.840711 c 0,0 4.445834,-0.0682 5.52873,0.19993"
       id="path12604"
       inkscape:connector-curvature="0"
       sodipodi:nodetypes="cc" />
    <path
       style="fill:#ffffff;fill-opacity:0.41517861;stroke:#ffffff;stroke-width:0.2;stroke-linecap:butt;stroke-linejoin:miter;stroke-miterlimit:4;stroke-dasharray:none;stroke-opacity:1"
       d="m 64.999358,75.020351 -1.503392,0.200451"
       id="path12606"
       inkscape:connector-curvature="0" />
    <path
       style="fill:#ffffff;fill-opacity:0.41517861;stroke:#ffffff;stroke-width:0.2;stroke-linecap:butt;stroke-linejoin:miter;stroke-miterlimit:4;stroke-dasharray:none;stroke-opacity:1"
       d="m 77.644546,75.037052 -1.319642,-0.0167"
       id="path12608"
       inkscape:connector-curvature="0"
       sodipodi:nodetypes="cc" />
  </g>
</svg>
