<?xml version="1.0" encoding="UTF-8" standalone="no"?>
<!-- Created with Inkscape (http://www.inkscape.org/) -->

<svg
   xmlns:dc="http://purl.org/dc/elements/1.1/"
   xmlns:cc="http://creativecommons.org/ns#"
   xmlns:rdf="http://www.w3.org/1999/02/22-rdf-syntax-ns#"
   xmlns:svg="http://www.w3.org/2000/svg"
   xmlns="http://www.w3.org/2000/svg"
   xmlns:sodipodi="http://sodipodi.sourceforge.net/DTD/sodipodi-0.dtd"
   xmlns:inkscape="http://www.inkscape.org/namespaces/inkscape"
   width="28.442709mm"
   height="38.389694mm"
   viewBox="0 0 28.442709 38.389694"
   version="1.1"
   id="svg12632"
   inkscape:version="0.92.4 (5da689c313, 2019-01-14)"
   sodipodi:docname="Legth_w_name.svg">
  <defs
     id="defs12626">
    <marker
       inkscape:stockid="Arrow2Lend"
       orient="auto"
       refY="0"
       refX="0"
       id="Arrow2Lend-6-4-7-2-1-4"
       style="overflow:visible"
       inkscape:isstock="true">
      <path
         inkscape:connector-curvature="0"
         id="path1427-3-2-6-5-2-5"
         style="fill:#ffffff;fill-opacity:1;fill-rule:evenodd;stroke:#ffffff;stroke-width:0.625;stroke-linejoin:round;stroke-opacity:1"
         d="M 8.7185878,4.0337352 -2.2072895,0.01601326 8.7185884,-4.0017078 c -1.7454984,2.3720609 -1.7354408,5.6174519 -6e-7,8.035443 z"
         transform="matrix(-1.1,0,0,-1.1,-1.1,0)" />
    </marker>
    <marker
       inkscape:stockid="Arrow2Lend"
       orient="auto"
       refY="0"
       refX="0"
       id="Arrow2Lend-5-6-4-3-5"
       style="overflow:visible"
       inkscape:isstock="true">
      <path
         inkscape:connector-curvature="0"
         id="path1427-9-7-8-7-1"
         style="fill:#ffffff;fill-opacity:1;fill-rule:evenodd;stroke:#ffffff;stroke-width:0.625;stroke-linejoin:round;stroke-opacity:1"
         d="M 8.7185878,4.0337352 -2.2072895,0.01601326 8.7185884,-4.0017078 c -1.7454984,2.3720609 -1.7354408,5.6174519 -6e-7,8.035443 z"
         transform="matrix(-1.1,0,0,-1.1,-1.1,0)" />
    </marker>
  </defs>
  <sodipodi:namedview
     id="base"
     pagecolor="#ffffff"
     bordercolor="#666666"
     borderopacity="1.0"
     inkscape:pageopacity="0.0"
     inkscape:pageshadow="2"
     inkscape:zoom="1.979899"
     inkscape:cx="2.1739115"
     inkscape:cy="-15.718533"
     inkscape:document-units="mm"
     inkscape:current-layer="layer1"
     showgrid="false"
     inkscape:window-width="1920"
     inkscape:window-height="1001"
     inkscape:window-x="-9"
     inkscape:window-y="-9"
     inkscape:window-maximized="1" />
  <metadata
     id="metadata12629">
    <rdf:RDF>
      <cc:Work
         rdf:about="">
        <dc:format>image/svg+xml</dc:format>
        <dc:type
           rdf:resource="http://purl.org/dc/dcmitype/StillImage" />
        <dc:title></dc:title>
      </cc:Work>
    </rdf:RDF>
  </metadata>
  <g
     inkscape:label="Layer 1"
     inkscape:groupmode="layer"
     id="layer1"
     transform="translate(-28.007231,-17.484636)">
    <rect
       style="opacity:0.95999995;fill:#000000;fill-opacity:0.58039216;stroke:none;stroke-width:2.40910649;stroke-linejoin:round;stroke-miterlimit:4;stroke-dasharray:none;stroke-dashoffset:0;stroke-opacity:1;paint-order:markers fill stroke"
       id="rect1262-0-5-9-0-6-5-8-1-32"
       width="28.442709"
       height="38.389694"
       x="28.007231"
       y="17.484636"
       ry="4.3467264"
       rx="4.3467264" />
    <text
       xml:space="preserve"
       style="font-style:normal;font-variant:normal;font-weight:normal;font-stretch:normal;font-size:7.05555534px;line-height:0.5;font-family:Helvetica;-inkscape-font-specification:Helvetica;letter-spacing:0px;word-spacing:0px;fill:#ffffff;fill-opacity:1;stroke:none;stroke-width:0.26458332"
       x="42.535995"
       y="52.431568"
       id="text1353-1-1-9-0-3-1-2"><tspan
         sodipodi:role="line"
         x="42.535995"
         y="52.431568"
         style="font-style:normal;font-variant:normal;font-weight:normal;font-stretch:normal;font-size:6.3499999px;line-height:0.89999998;font-family:Helvetica;-inkscape-font-specification:Helvetica;text-align:center;letter-spacing:0px;word-spacing:0px;direction:ltr;text-anchor:middle;fill:#ffffff;fill-opacity:1;stroke-width:0.26458332"
         id="tspan1402-8-24-3-6-1-6">Length</tspan></text>
    <path
       style="fill:#ffffff;fill-opacity:0.23529412;stroke:#ffffff;stroke-width:0.33002648;stroke-linecap:butt;stroke-linejoin:miter;stroke-miterlimit:4;stroke-dasharray:none;stroke-opacity:1"
       d="m 39.552281,22.970629 c 0,0 -3.054283,1.5078 -3.324917,1.93308 -0.270632,0.42529 -1.50781,18.36437 -1.50781,18.36437 0,0 0.987404,-0.0385 2.087737,-0.0387 0,0 -0.14498,-2.80298 0.618591,-5.0647 0.70966,-2.10204 0.579927,-9.04686 0.579927,-9.04686 0,0 0.440366,5.51472 0.318959,6.3212 -0.135316,0.89889 -0.792567,3.65838 -0.937548,4.23347 -0.106323,0.41562 -0.444613,2.60001 -0.154649,3.01562 0.425282,0.61859 2.049077,1.8171 5.103362,1.70112 3.054282,-0.11598 5.103359,-0.5026 5.644625,-1.93308 0.541265,-1.43049 -0.154647,-4.36879 -0.309294,-4.91006 -0.154649,-0.54127 -0.927884,-3.94351 -0.927884,-4.40745 0,-0.46394 0.01393,-2.49189 0.01393,-2.49189 0,0 0.369064,4.30575 0.574099,4.8115 0.205035,0.50575 0.765465,2.99351 0.943163,3.44459 0.177697,0.45108 0.164027,4.16905 0.164027,4.16905 l 2.528768,-0.0136 c 0,0 -0.533091,-5.1669 -0.656112,-5.63164 -0.123022,-0.46474 -0.779134,-6.68415 -0.779134,-6.68415 0,0 -0.300718,-4.03236 -0.355395,-4.23739 -0.05467,-0.20504 -0.546759,-1.83165 -0.80647,-2.0777 -0.259712,-0.24603 -3.184882,-1.46258 -3.184882,-1.46258 0,0 -0.878679,-1.13287 -0.956831,-1.24388 -0.387448,0.21278 -0.674459,0.3844 -2.004655,0.3844 -0.495142,0.003 -1.395329,-0.12635 -1.726986,-0.32972 l -0.944623,1.19502 z"
       id="path7246-4"
       inkscape:connector-curvature="0"
       sodipodi:nodetypes="cscsscsccsscscscccccsccccccc" />
    <path
       style="fill:none;stroke:#ffffff;stroke-width:0.22001764;stroke-linecap:butt;stroke-linejoin:miter;stroke-miterlimit:4;stroke-dasharray:none;stroke-opacity:1"
       d="m 45.216238,22.989959 c 0,0 -0.42528,1.44014 -0.376953,1.70112 0.04833,0.26096 -1.633462,-0.8989 -1.633462,-0.8989 l -1.121193,0.61859 -0.15248,19.93237"
       id="path10970-1"
       inkscape:connector-curvature="0" />
    <path
       style="fill:none;stroke:#ffffff;stroke-width:0.22001764;stroke-linecap:butt;stroke-linejoin:miter;stroke-miterlimit:4;stroke-dasharray:none;stroke-opacity:1"
       d="m 40.486652,21.797809 c 0,0 0.912406,1.54972 1.076434,1.79576 0.164028,0.24605 0.642445,0.72447 0.642445,0.72447 0,0 -0.7723,-0.47159 -0.902156,-0.46476 -0.129856,0.007 -1.161866,1.05936 -1.161866,1.05936 l -0.608272,-1.92051"
       id="path10972-8"
       inkscape:connector-curvature="0"
       sodipodi:nodetypes="cscccc" />
    <path
       style="fill:none;stroke:#ffffff;stroke-width:0.22001764;stroke-linecap:butt;stroke-linejoin:miter;stroke-miterlimit:4;stroke-dasharray:none;stroke-opacity:1"
       d="m 44.098689,21.800029 c 0,0 -0.191295,0.84582 -0.444243,1.30146 -0.19627,0.34746 -0.448661,0.7012 -0.448661,0.7012"
       id="path10974-1"
       inkscape:connector-curvature="0"
       sodipodi:nodetypes="ccc" />
    <ellipse
       style="opacity:0.42699998;fill:#ffffff;fill-opacity:1;stroke:#fffffe;stroke-width:0.23713565;stroke-linejoin:round;stroke-miterlimit:4;stroke-dasharray:none;stroke-dashoffset:0;stroke-opacity:1;paint-order:markers fill stroke"
       id="path10976-7"
       cx="42.609386"
       cy="25.720858"
       rx="0.11203954"
       ry="0.13304694" />
    <ellipse
       style="opacity:0.42699998;fill:#ffffff;fill-opacity:1;stroke:#fffffe;stroke-width:0.23713565;stroke-linejoin:round;stroke-miterlimit:4;stroke-dasharray:none;stroke-dashoffset:0;stroke-opacity:1;paint-order:markers fill stroke"
       id="path10976-1-43"
       cx="42.585461"
       cy="27.570971"
       rx="0.11203954"
       ry="0.13304694" />
    <ellipse
       style="opacity:0.42699998;fill:#ffffff;fill-opacity:1;stroke:#fffffe;stroke-width:0.23713565;stroke-linejoin:round;stroke-miterlimit:4;stroke-dasharray:none;stroke-dashoffset:0;stroke-opacity:1;paint-order:markers fill stroke"
       id="path10976-1-2-4"
       cx="42.598454"
       cy="29.675997"
       rx="0.11203954"
       ry="0.13304695" />
    <ellipse
       style="opacity:0.42699998;fill:#ffffff;fill-opacity:1;stroke:#fffffe;stroke-width:0.23713565;stroke-linejoin:round;stroke-miterlimit:4;stroke-dasharray:none;stroke-dashoffset:0;stroke-opacity:1;paint-order:markers fill stroke"
       id="path10976-1-8-3"
       cx="42.598454"
       cy="32.157841"
       rx="0.11203954"
       ry="0.13304695" />
    <ellipse
       style="opacity:0.42699998;fill:#ffffff;fill-opacity:1;stroke:#fffffe;stroke-width:0.23713565;stroke-linejoin:round;stroke-miterlimit:4;stroke-dasharray:none;stroke-dashoffset:0;stroke-opacity:1;paint-order:markers fill stroke"
       id="path10976-1-4-8"
       cx="42.520489"
       cy="34.71767"
       rx="0.11203954"
       ry="0.13304695" />
    <ellipse
       style="opacity:0.42699998;fill:#ffffff;fill-opacity:1;stroke:#fffffe;stroke-width:0.23713565;stroke-linejoin:round;stroke-miterlimit:4;stroke-dasharray:none;stroke-dashoffset:0;stroke-opacity:1;paint-order:markers fill stroke"
       id="path10976-1-8-6-2"
       cx="42.56089"
       cy="37.12804"
       rx="0.11203954"
       ry="0.13304697" />
    <ellipse
       style="opacity:0.42699998;fill:#ffffff;fill-opacity:1;stroke:#fffffe;stroke-width:0.23713565;stroke-linejoin:round;stroke-miterlimit:4;stroke-dasharray:none;stroke-dashoffset:0;stroke-opacity:1;paint-order:markers fill stroke"
       id="path10976-1-4-5-9"
       cx="42.538055"
       cy="39.68787"
       rx="0.11203954"
       ry="0.13304697" />
    <path
       style="fill:none;stroke:#ffffff;stroke-width:0.29152334;stroke-linecap:butt;stroke-linejoin:miter;stroke-miterlimit:4;stroke-dasharray:none;stroke-opacity:1"
       d="m 48.458815,41.293909 c 0.07351,0.0184 2.205152,-0.18377 2.205152,-0.18377"
       id="path11106-9"
       inkscape:connector-curvature="0" />
    <path
       style="fill:none;stroke:#ffffff;stroke-width:0.29106498px;stroke-linecap:butt;stroke-linejoin:miter;stroke-opacity:1"
       d="m 34.91298,41.279669 c 0.07953,0.0795 1.606389,0.13505 1.929142,0.026"
       id="path11108-2"
       inkscape:connector-curvature="0"
       sodipodi:nodetypes="cc" />
    <path
       style="fill:#ffffff;fill-opacity:0.58823529;stroke:#ffffff;stroke-width:0.33002648;stroke-linecap:butt;stroke-linejoin:miter;stroke-miterlimit:4;stroke-dasharray:none;stroke-opacity:1"
       d="m 39.542183,22.980909 c 0,0 -3.054283,1.5078 -3.324917,1.93308 -0.270632,0.42529 -1.50781,18.36437 -1.50781,18.36437 0,0 0.987404,-0.0385 2.087737,-0.0387 0,0 -0.14498,-2.80298 0.618591,-5.0647 0.70966,-2.10204 0.579927,-9.04686 0.579927,-9.04686 0,0 0.440366,5.51472 0.318959,6.3212 -0.135316,0.89889 -0.344416,1.50198 -0.489397,2.07707 3.824823,0.0313 5.610517,0.03 9.835894,0.03 -0.154649,-0.54127 -0.927884,-3.94351 -0.927884,-4.40745 0,-0.46394 0.01393,-2.49189 0.01393,-2.49189 0,0 0.369064,4.30575 0.574099,4.8115 0.205035,0.50575 0.765465,2.99351 0.943161,3.44459 0.177698,0.45108 0.164028,4.16905 0.164028,4.16905 l 2.528768,-0.0136 c 0,0 -0.533091,-5.1669 -0.656112,-5.63164 -0.123022,-0.46474 -0.779134,-6.68415 -0.779134,-6.68415 0,0 -0.300718,-4.03236 -0.355395,-4.23739 -0.05467,-0.20504 -0.54676,-1.83165 -0.806471,-2.0777 -0.259711,-0.24603 -3.184882,-1.46258 -3.184882,-1.46258 0,0 -0.878678,-1.13287 -0.956832,-1.24388 -0.387447,0.21278 -0.674458,0.3844 -2.004655,0.3844 -0.495141,0.003 -1.395328,-0.12635 -1.726986,-0.32972 l -0.915094,1.16549 z"
       id="path7246-4-8-6"
       inkscape:connector-curvature="0"
       sodipodi:nodetypes="cscsscsccscscccccsccccccc" />
    <path
       style="fill:none;stroke:#ffffff;stroke-width:0.2;stroke-linecap:butt;stroke-linejoin:miter;stroke-miterlimit:4;stroke-dasharray:none;stroke-opacity:1;marker-end:url(#Arrow2Lend-5-6-4-3-5)"
       d="m 43.504256,42.099509 v 1.80501"
       id="path1404-0-6-0-9"
       inkscape:connector-curvature="0"
       sodipodi:nodetypes="cc" />
    <path
       style="fill:none;stroke:#ffffff;stroke-width:0.2;stroke-linecap:butt;stroke-linejoin:miter;stroke-miterlimit:4;stroke-dasharray:none;stroke-opacity:1;marker-end:url(#Arrow2Lend-6-4-7-2-1-4)"
       d="m 43.504251,39.811129 v -1.80501"
       id="path1404-9-0-5-5-4"
       inkscape:connector-curvature="0"
       sodipodi:nodetypes="cc" />
    <path
       sodipodi:nodetypes="cc"
       style="fill:none;stroke:#ffffff;stroke-width:0.30000001;stroke-linecap:butt;stroke-linejoin:miter;stroke-miterlimit:4;stroke-dasharray:none;stroke-opacity:1"
       d="m 43.504254,43.552909 v -4.99054"
       id="path3440-1-7-8-8-94"
       inkscape:connector-curvature="0" />
  </g>
</svg>
