<?xml version="1.0" encoding="UTF-8" standalone="no"?>
<!-- Created with Inkscape (http://www.inkscape.org/) -->

<svg
   xmlns:dc="http://purl.org/dc/elements/1.1/"
   xmlns:cc="http://creativecommons.org/ns#"
   xmlns:rdf="http://www.w3.org/1999/02/22-rdf-syntax-ns#"
   xmlns:svg="http://www.w3.org/2000/svg"
   xmlns="http://www.w3.org/2000/svg"
   xmlns:sodipodi="http://sodipodi.sourceforge.net/DTD/sodipodi-0.dtd"
   xmlns:inkscape="http://www.inkscape.org/namespaces/inkscape"
   width="28.442709mm"
   height="38.389694mm"
   viewBox="0 0 28.442709 38.389694"
   version="1.1"
   id="svg12632"
   inkscape:version="0.92.4 (5da689c313, 2019-01-14)"
   sodipodi:docname="Sleeve_w_name.svg">
  <defs
     id="defs12626" />
  <sodipodi:namedview
     id="base"
     pagecolor="#ffffff"
     bordercolor="#666666"
     borderopacity="1.0"
     inkscape:pageopacity="0.0"
     inkscape:pageshadow="2"
     inkscape:zoom="0.98994949"
     inkscape:cx="-110.86817"
     inkscape:cy="67.627551"
     inkscape:document-units="mm"
     inkscape:current-layer="layer1"
     showgrid="false"
     inkscape:window-width="1920"
     inkscape:window-height="1001"
     inkscape:window-x="-9"
     inkscape:window-y="-9"
     inkscape:window-maximized="1" />
  <metadata
     id="metadata12629">
    <rdf:RDF>
      <cc:Work
         rdf:about="">
        <dc:format>image/svg+xml</dc:format>
        <dc:type
           rdf:resource="http://purl.org/dc/dcmitype/StillImage" />
        <dc:title></dc:title>
      </cc:Work>
    </rdf:RDF>
  </metadata>
  <g
     inkscape:label="Layer 1"
     inkscape:groupmode="layer"
     id="layer1"
     transform="translate(-15.980103,-61.851376)">
    <rect
       style="opacity:0.95999995;fill:#000000;fill-opacity:0.58039216;stroke:none;stroke-width:2.40910649;stroke-linejoin:round;stroke-miterlimit:4;stroke-dasharray:none;stroke-dashoffset:0;stroke-opacity:1;paint-order:markers fill stroke"
       id="rect1262-0-5-9-0-6-5-8-1"
       width="28.442709"
       height="38.389694"
       x="15.980103"
       y="61.851376"
       ry="4.3467264"
       rx="4.3467264" />
    <text
       xml:space="preserve"
       style="font-style:normal;font-variant:normal;font-weight:normal;font-stretch:normal;font-size:7.05555534px;line-height:0.5;font-family:Helvetica;-inkscape-font-specification:Helvetica;letter-spacing:0px;word-spacing:0px;fill:#ffffff;fill-opacity:1;stroke:none;stroke-width:0.26458332"
       x="30.508867"
       y="96.798409"
       id="text1353-1-1-9-0-3-1"><tspan
         sodipodi:role="line"
         x="30.508867"
         y="96.798409"
         style="font-style:normal;font-variant:normal;font-weight:normal;font-stretch:normal;font-size:6.3499999px;line-height:0.89999998;font-family:Helvetica;-inkscape-font-specification:Helvetica;text-align:center;letter-spacing:0px;word-spacing:0px;direction:ltr;text-anchor:middle;fill:#ffffff;fill-opacity:1;stroke-width:0.26458332"
         id="tspan1402-8-24-3-6-1">Sleeve</tspan></text>
    <path
       style="fill:#ffffff;fill-opacity:0.23529412;stroke:#ffffff;stroke-width:0.33000001;stroke-linecap:butt;stroke-linejoin:miter;stroke-miterlimit:4;stroke-dasharray:none;stroke-opacity:1"
       d="m 27.525153,67.337285 c 0,0 -3.054282,1.507791 -3.324917,1.933068 -0.270632,0.42529 -1.50781,18.364371 -1.50781,18.364371 0,0 0.987404,-0.0385 2.087737,-0.0387 0,0 -0.14498,-2.80298 0.618591,-5.0647 0.70966,-2.10204 0.579927,-9.04686 0.579927,-9.04686 0,0 0.440366,5.51472 0.318959,6.3212 -0.135316,0.89889 -0.792567,3.65838 -0.937548,4.23347 -0.106323,0.41562 -0.444612,2.60001 -0.154648,3.01562 0.425282,0.61859 2.049076,1.817099 5.103361,1.701119 3.054282,-0.115978 5.103359,-0.502599 5.644625,-1.933079 0.541265,-1.43049 -0.154647,-4.36879 -0.309294,-4.91006 -0.154649,-0.54127 -0.927884,-3.94351 -0.927884,-4.40745 0,-0.46394 0.01393,-2.49189 0.01393,-2.49189 0,0 0.369064,4.30575 0.574099,4.8115 0.205035,0.50575 0.765465,2.99351 0.943163,3.44459 0.177697,0.45108 0.164027,4.16905 0.164027,4.16905 l 2.528768,-0.0136 c 0,0 -0.533091,-5.1669 -0.656112,-5.63164 -0.123022,-0.46474 -0.779134,-6.68415 -0.779134,-6.68415 0,0 -0.300718,-4.03236 -0.355395,-4.23739 -0.05467,-0.20504 -0.54676,-1.831647 -0.806471,-2.077697 -0.259712,-0.246027 -3.184882,-1.462571 -3.184882,-1.462571 0,0 -0.878679,-1.132864 -0.956831,-1.243874 -0.387448,0.21278 -0.674459,0.384397 -2.004655,0.384397 -0.495142,0.003 -1.395329,-0.126347 -1.726986,-0.329717 l -0.944623,1.195014 z"
       id="path7246"
       inkscape:connector-curvature="0"
       sodipodi:nodetypes="cscsscsccsscscscccccsccccccc" />
    <path
       style="fill:none;stroke:#ffffff;stroke-width:0.22001764;stroke-linecap:butt;stroke-linejoin:miter;stroke-miterlimit:4;stroke-dasharray:none;stroke-opacity:1"
       d="m 33.18911,67.356615 c 0,0 -0.42528,1.440131 -0.376953,1.701111 0.04833,0.260957 -1.633462,-0.898897 -1.633462,-0.898897 l -1.121193,0.618587 -0.15248,19.932369"
       id="path10970"
       inkscape:connector-curvature="0" />
    <path
       style="fill:none;stroke:#ffffff;stroke-width:0.22001764;stroke-linecap:butt;stroke-linejoin:miter;stroke-miterlimit:4;stroke-dasharray:none;stroke-opacity:1"
       d="m 28.459524,66.164471 c 0,0 0.912406,1.549711 1.076434,1.795751 0.164028,0.246047 0.642445,0.724464 0.642445,0.724464 0,0 -0.7723,-0.471587 -0.902156,-0.464757 -0.129856,0.007 -1.161866,1.059354 -1.161866,1.059354 l -0.608272,-1.920498"
       id="path10972"
       inkscape:connector-curvature="0"
       sodipodi:nodetypes="cscccc" />
    <path
       style="fill:none;stroke:#ffffff;stroke-width:0.22001764;stroke-linecap:butt;stroke-linejoin:miter;stroke-miterlimit:4;stroke-dasharray:none;stroke-opacity:1"
       d="m 32.071561,66.166691 c 0,0 -0.191295,0.845814 -0.444243,1.301454 -0.19627,0.347457 -0.448661,0.701194 -0.448661,0.701194"
       id="path10974"
       inkscape:connector-curvature="0"
       sodipodi:nodetypes="ccc" />
    <ellipse
       style="opacity:0.42699998;fill:#ffffff;fill-opacity:1;stroke:#fffffe;stroke-width:0.23713565;stroke-linejoin:round;stroke-miterlimit:4;stroke-dasharray:none;stroke-dashoffset:0;stroke-opacity:1;paint-order:markers fill stroke"
       id="path10976"
       cx="30.582258"
       cy="70.087601"
       rx="0.11203954"
       ry="0.13304694" />
    <ellipse
       style="opacity:0.42699998;fill:#ffffff;fill-opacity:1;stroke:#fffffe;stroke-width:0.23713565;stroke-linejoin:round;stroke-miterlimit:4;stroke-dasharray:none;stroke-dashoffset:0;stroke-opacity:1;paint-order:markers fill stroke"
       id="path10976-1"
       cx="30.558332"
       cy="71.937737"
       rx="0.11203954"
       ry="0.13304694" />
    <ellipse
       style="opacity:0.42699998;fill:#ffffff;fill-opacity:1;stroke:#fffffe;stroke-width:0.23713565;stroke-linejoin:round;stroke-miterlimit:4;stroke-dasharray:none;stroke-dashoffset:0;stroke-opacity:1;paint-order:markers fill stroke"
       id="path10976-1-2"
       cx="30.571325"
       cy="74.04277"
       rx="0.11203954"
       ry="0.13304695" />
    <ellipse
       style="opacity:0.42699998;fill:#ffffff;fill-opacity:1;stroke:#fffffe;stroke-width:0.23713565;stroke-linejoin:round;stroke-miterlimit:4;stroke-dasharray:none;stroke-dashoffset:0;stroke-opacity:1;paint-order:markers fill stroke"
       id="path10976-1-8"
       cx="30.571325"
       cy="76.524597"
       rx="0.11203954"
       ry="0.13304695" />
    <ellipse
       style="opacity:0.42699998;fill:#ffffff;fill-opacity:1;stroke:#fffffe;stroke-width:0.23713565;stroke-linejoin:round;stroke-miterlimit:4;stroke-dasharray:none;stroke-dashoffset:0;stroke-opacity:1;paint-order:markers fill stroke"
       id="path10976-1-4"
       cx="30.493361"
       cy="79.084404"
       rx="0.11203954"
       ry="0.13304695" />
    <ellipse
       style="opacity:0.42699998;fill:#ffffff;fill-opacity:1;stroke:#fffffe;stroke-width:0.23713565;stroke-linejoin:round;stroke-miterlimit:4;stroke-dasharray:none;stroke-dashoffset:0;stroke-opacity:1;paint-order:markers fill stroke"
       id="path10976-1-8-6"
       cx="30.533762"
       cy="81.494797"
       rx="0.11203954"
       ry="0.13304697" />
    <ellipse
       style="opacity:0.42699998;fill:#ffffff;fill-opacity:1;stroke:#fffffe;stroke-width:0.23713565;stroke-linejoin:round;stroke-miterlimit:4;stroke-dasharray:none;stroke-dashoffset:0;stroke-opacity:1;paint-order:markers fill stroke"
       id="path10976-1-4-5"
       cx="30.510927"
       cy="84.054634"
       rx="0.11203954"
       ry="0.13304697" />
    <path
       style="fill:none;stroke:#ffffff;stroke-width:0.29152334;stroke-linecap:butt;stroke-linejoin:miter;stroke-miterlimit:4;stroke-dasharray:none;stroke-opacity:1"
       d="m 36.431687,85.660554 c 0.07351,0.0184 2.205152,-0.18377 2.205152,-0.18377"
       id="path11106"
       inkscape:connector-curvature="0" />
    <path
       style="fill:none;stroke:#ffffff;stroke-width:0.29106498px;stroke-linecap:butt;stroke-linejoin:miter;stroke-opacity:1"
       d="m 22.885852,85.646314 c 0.07953,0.0795 1.606389,0.13505 1.929142,0.026"
       id="path11108"
       inkscape:connector-curvature="0"
       sodipodi:nodetypes="cc" />
    <path
       style="fill:#ffffff;fill-opacity:0.58823529;stroke:#ffffff;stroke-width:0.33002648;stroke-linecap:butt;stroke-linejoin:miter;stroke-miterlimit:4;stroke-dasharray:none;stroke-opacity:1"
       d="m 24.201058,69.271243 c -0.270633,0.42529 -1.507811,18.364381 -1.507811,18.364381 0,0 0.987404,-0.0385 2.087738,-0.0387 0,0 -0.144981,-2.80298 0.61859,-5.0647 0.709661,-2.10206 0.579927,-9.04687 0.579927,-9.04687 -0.938092,-3.089371 -1.777542,-4.217431 -1.778444,-4.214091 z"
       id="path7246-8"
       inkscape:connector-curvature="0"
       sodipodi:nodetypes="ccsscc" />
    <path
       style="fill:#ffffff;fill-opacity:0.58823529;stroke:#ffffff;stroke-width:0.33002648;stroke-linecap:butt;stroke-linejoin:miter;stroke-miterlimit:4;stroke-dasharray:none;stroke-opacity:1"
       d="m 34.739917,75.029774 c 0,0 0.369064,4.30574 0.574099,4.8115 0.205035,0.50574 0.765465,2.9935 0.943162,3.44458 0.177699,0.45108 0.164028,4.16905 0.164028,4.16905 l 2.528768,-0.0136 c 0,0 -0.533091,-5.1669 -0.656112,-5.63164 -0.123022,-0.46474 -0.779134,-6.68415 -0.779134,-6.68415 0,0 -0.300718,-4.03236 -0.355395,-4.23739 -0.05467,-0.20504 -0.54676,-1.831647 -0.806471,-2.077697 -2.136389,0.395377 -1.703623,4.796547 -1.612945,6.219387 z"
       id="path7246-7"
       inkscape:connector-curvature="0"
       sodipodi:nodetypes="cscccccscc" />
  </g>
</svg>
