<?xml version="1.0" encoding="UTF-8" standalone="no"?>
<!-- Created with Inkscape (http://www.inkscape.org/) -->

<svg
   xmlns:dc="http://purl.org/dc/elements/1.1/"
   xmlns:cc="http://creativecommons.org/ns#"
   xmlns:rdf="http://www.w3.org/1999/02/22-rdf-syntax-ns#"
   xmlns:svg="http://www.w3.org/2000/svg"
   xmlns="http://www.w3.org/2000/svg"
   xmlns:sodipodi="http://sodipodi.sourceforge.net/DTD/sodipodi-0.dtd"
   xmlns:inkscape="http://www.inkscape.org/namespaces/inkscape"
   width="28.442709mm"
   height="31.277531mm"
   viewBox="0 0 28.442709 31.277531"
   version="1.1"
   id="svg12632"
   inkscape:version="0.92.4 (5da689c313, 2019-01-14)"
   sodipodi:docname="Neckline_w_name.svg">
  <defs
     id="defs12626">
    <marker
       inkscape:stockid="Arrow2Lend"
       orient="auto"
       refY="0"
       refX="0"
       id="Arrow2Lend-6-4-7-2-1-4"
       style="overflow:visible"
       inkscape:isstock="true">
      <path
         inkscape:connector-curvature="0"
         id="path1427-3-2-6-5-2-5"
         style="fill:#ffffff;fill-opacity:1;fill-rule:evenodd;stroke:#ffffff;stroke-width:0.625;stroke-linejoin:round;stroke-opacity:1"
         d="M 8.7185878,4.0337352 -2.2072895,0.01601326 8.7185884,-4.0017078 c -1.7454984,2.3720609 -1.7354408,5.6174519 -6e-7,8.035443 z"
         transform="matrix(-1.1,0,0,-1.1,-1.1,0)" />
    </marker>
    <marker
       inkscape:stockid="Arrow2Lend"
       orient="auto"
       refY="0"
       refX="0"
       id="Arrow2Lend-5-6-4-3-5"
       style="overflow:visible"
       inkscape:isstock="true">
      <path
         inkscape:connector-curvature="0"
         id="path1427-9-7-8-7-1"
         style="fill:#ffffff;fill-opacity:1;fill-rule:evenodd;stroke:#ffffff;stroke-width:0.625;stroke-linejoin:round;stroke-opacity:1"
         d="M 8.7185878,4.0337352 -2.2072895,0.01601326 8.7185884,-4.0017078 c -1.7454984,2.3720609 -1.7354408,5.6174519 -6e-7,8.035443 z"
         transform="matrix(-1.1,0,0,-1.1,-1.1,0)" />
    </marker>
    <marker
       inkscape:stockid="Arrow2Lend"
       orient="auto"
       refY="0"
       refX="0"
       id="Arrow2Lend-6-0-0-9-1"
       style="overflow:visible"
       inkscape:isstock="true">
      <path
         inkscape:connector-curvature="0"
         id="path1427-3-0-5-9-4"
         style="fill:#ffffff;fill-opacity:1;fill-rule:evenodd;stroke:#ffffff;stroke-width:0.625;stroke-linejoin:round;stroke-opacity:1"
         d="M 8.7185878,4.0337352 -2.2072895,0.01601326 8.7185884,-4.0017078 c -1.7454984,2.3720609 -1.7354408,5.6174519 -6e-7,8.035443 z"
         transform="matrix(-1.1,0,0,-1.1,-1.1,0)" />
    </marker>
    <marker
       inkscape:stockid="Arrow2Lend"
       orient="auto"
       refY="0"
       refX="0"
       id="Arrow2Lend-6-0-0-4-1-7"
       style="overflow:visible"
       inkscape:isstock="true">
      <path
         inkscape:connector-curvature="0"
         id="path1427-3-0-5-1-8-9"
         style="fill:#ffffff;fill-opacity:1;fill-rule:evenodd;stroke:#ffffff;stroke-width:0.625;stroke-linejoin:round;stroke-opacity:1"
         d="M 8.7185878,4.0337352 -2.2072895,0.01601326 8.7185884,-4.0017078 c -1.7454984,2.3720609 -1.7354408,5.6174519 -6e-7,8.035443 z"
         transform="matrix(-1.1,0,0,-1.1,-1.1,0)" />
    </marker>
  </defs>
  <sodipodi:namedview
     id="base"
     pagecolor="#ffffff"
     bordercolor="#666666"
     borderopacity="1.0"
     inkscape:pageopacity="0.0"
     inkscape:pageshadow="2"
     inkscape:zoom="2.8"
     inkscape:cx="58.712416"
     inkscape:cy="106.94581"
     inkscape:document-units="mm"
     inkscape:current-layer="layer1"
     showgrid="false"
     inkscape:window-width="1920"
     inkscape:window-height="1001"
     inkscape:window-x="-9"
     inkscape:window-y="-9"
     inkscape:window-maximized="1" />
  <metadata
     id="metadata12629">
    <rdf:RDF>
      <cc:Work
         rdf:about="">
        <dc:format>image/svg+xml</dc:format>
        <dc:type
           rdf:resource="http://purl.org/dc/dcmitype/StillImage" />
        <dc:title></dc:title>
      </cc:Work>
    </rdf:RDF>
  </metadata>
  <g
     inkscape:label="Layer 1"
     inkscape:groupmode="layer"
     id="layer1"
     transform="translate(-15.980102,-10.884475)">
    <text
       xml:space="preserve"
       style="font-style:normal;font-variant:normal;font-weight:normal;font-stretch:normal;font-size:6.67642593px;line-height:0.5;font-family:Helvetica;-inkscape-font-specification:Helvetica;letter-spacing:0px;word-spacing:0px;fill:#ffffff;fill-opacity:1;stroke:none;stroke-width:0.25036603"
       x="19.809414"
       y="36.452679"
       id="text1353-9"
       transform="scale(0.94626511,1.0567863)"><tspan
         sodipodi:role="line"
         id="tspan1351-2"
         x="19.809414"
         y="36.452679"
         style="font-style:normal;font-variant:normal;font-weight:normal;font-stretch:normal;font-size:6.3499999px;font-family:Helvetica;-inkscape-font-specification:Helvetica;fill:#ffffff;fill-opacity:1;stroke-width:0.25036603">Neckline</tspan></text>
    <rect
       style="opacity:0.95999995;fill:#000000;fill-opacity:0.58039216;stroke:none;stroke-width:2.17452788;stroke-linejoin:round;stroke-miterlimit:4;stroke-dasharray:none;stroke-dashoffset:0;stroke-opacity:1;paint-order:markers fill stroke"
       id="rect1262-2"
       width="28.442709"
       height="31.277531"
       x="15.980102"
       y="10.884475"
       ry="4.3467264"
       rx="4.3467264" />
  </g>
  <g
     inkscape:groupmode="layer"
     id="layer3"
     inkscape:label="Layer 3">
    <path
       transform="translate(-15.980102,-10.884475)"
       style="fill:#ffffff;fill-opacity:0.58823529;stroke:#ffffff;stroke-width:0.39999998;stroke-linecap:butt;stroke-linejoin:miter;stroke-miterlimit:4;stroke-dasharray:none;stroke-opacity:1"
       d="m 28.358218,14.745855 c 0,0 -0.693826,4.021722 -4.933792,5.420541 -0.749555,0.247288 -0.782349,1.298272 -0.631058,1.862886 0.999535,3.585888 2.401782,4.686795 2.911889,7.129716 0.2933,1.374183 0.357365,1.862543 0.357365,1.862543 l 8.224998,0.0523 c 0,0 0.06967,-1.05178 0.254433,-1.736788 0.898856,-3.332448 2.966064,-5.617288 3.113262,-7.446045 0.04636,-0.575694 0.118722,-1.442599 -1.156187,-1.918545 -3.391202,-1.266003 -4.60097,-5.226605 -4.60097,-5.226605 z"
       id="path1006"
       inkscape:connector-curvature="0"
       sodipodi:nodetypes="csccccssscc" />
    <path
       transform="translate(-15.980102,-10.884475)"
       style="fill:none;fill-opacity:0.58823529;stroke:#ffffff;stroke-width:0.39999998;stroke-linecap:butt;stroke-linejoin:miter;stroke-miterlimit:4;stroke-dasharray:none;stroke-opacity:1"
       d="m 35.99989,19.793476 c 0,0 -1.32901,2.692506 0.270068,5.462194"
       id="path1008"
       inkscape:connector-curvature="0"
       sodipodi:nodetypes="cc" />
    <path
       transform="translate(-15.980102,-10.884475)"
       style="fill:none;fill-opacity:0.58823529;stroke:#ffffff;stroke-width:0.39999998;stroke-linecap:butt;stroke-linejoin:miter;stroke-miterlimit:4;stroke-dasharray:none;stroke-opacity:1"
       d="m 24.375808,19.794787 c 0,0 1.270544,3.026593 -0.328533,5.796281"
       id="path1008-6"
       inkscape:connector-curvature="0"
       sodipodi:nodetypes="cc" />
    <path
       transform="translate(-15.980102,-10.884475)"
       style="fill:none;fill-opacity:0.58823529;stroke:#ffffff;stroke-width:0.39999998;stroke-linecap:butt;stroke-linejoin:miter;stroke-miterlimit:4;stroke-dasharray:none;stroke-opacity:1"
       d="m 25.65901,18.993787 c 0,0 1.654105,0.762405 4.457026,0.810042 2.571467,0 4.658324,-0.787916 4.658324,-0.787916"
       id="path1025"
       inkscape:connector-curvature="0"
       sodipodi:nodetypes="ccc" />
    <path
       style="opacity:0.42699998;fill:#323232;fill-opacity:1;stroke:#ffffff;stroke-width:0.07281805;stroke-linejoin:round;stroke-miterlimit:4;stroke-dasharray:none;stroke-dashoffset:0;stroke-opacity:1;paint-order:markers fill stroke"
       d="M 13.695428,8.7188283 C 12.558419,8.6685626 11.426858,8.4819763 10.354452,8.1679251 L 10.02647,8.0718762 10.533792,7.5433615 c 0.830853,-0.8655591 1.459495,-1.9066614 1.820154,-3.0143854 l 0.160388,-0.4926123 1.641436,-6.737e-4 1.641436,-6.738e-4 0.06344,0.1804664 c 0.124657,0.3546142 0.618629,1.3430381 0.887478,1.7758188 0.37522,0.604014 0.866974,1.2288928 1.3339,1.6950103 0.215506,0.2151328 0.382936,0.3911506 0.372066,0.3911506 -0.01087,0 -0.353859,0.084924 -0.762197,0.1887194 -0.929767,0.2363384 -1.832877,0.3747523 -2.846808,0.4363123 -0.433453,0.026316 -0.798945,0.04387 -0.812201,0.039007 -0.01326,-0.00486 -0.165112,-0.015076 -0.337455,-0.022695 z"
       id="path871"
       inkscape:connector-curvature="0" />
    <path
       style="opacity:0.42699998;fill:#323232;fill-opacity:1;stroke:#ffffff;stroke-width:0.07469647;stroke-linejoin:round;stroke-miterlimit:4;stroke-dasharray:none;stroke-dashoffset:0;stroke-opacity:1;paint-order:markers fill stroke"
       d="m 20.285153,13.934187 c -0.07768,-0.110454 -0.365898,-0.743292 -0.464299,-1.117318 -0.144848,-0.550585 -0.12374,-1.967548 -0.01344,-2.579342 0.104837,-0.5814531 0.250076,-1.0833978 0.314029,-1.0852805 0.11948,-0.00352 0.811147,0.3057681 0.985524,0.4406866 0.103623,0.080172 0.243249,0.2564171 0.310289,0.3916553 0.10864,0.2191466 0.121,0.3033316 0.113709,0.7741376 -0.01007,0.650118 -0.162301,1.15791 -0.641589,2.140165 -0.419192,0.859091 -0.559307,1.099167 -0.604231,1.035296 z"
       id="path873"
       inkscape:connector-curvature="0"
       sodipodi:nodetypes="cscscssscc" />
    <path
       style="opacity:0.42699998;fill:#323232;fill-opacity:1;stroke:#ffffff;stroke-width:0.07501467;stroke-linejoin:round;stroke-miterlimit:4;stroke-dasharray:none;stroke-dashoffset:0;stroke-opacity:1;paint-order:markers fill stroke"
       d="M 8.0063903,13.832181 C 7.4786336,12.747938 6.9520401,11.238763 6.9088155,10.686623 6.8757104,10.263746 6.9699189,9.8705098 7.1567028,9.6519126 7.2996463,9.484623 8.2565183,9.0995057 8.3122794,9.186822 8.3320574,9.217791 8.3858354,9.3872427 8.4317888,9.5633815 8.8354726,11.110705 8.7764265,12.676659 8.2671479,13.929808 l -0.097027,0.238748 z"
       id="path875"
       inkscape:connector-curvature="0" />
    <text
       xml:space="preserve"
       style="font-style:normal;font-variant:normal;font-weight:normal;font-stretch:normal;font-size:6.67642593px;line-height:0.5;font-family:Helvetica;-inkscape-font-specification:Helvetica;letter-spacing:0px;word-spacing:0px;fill:#ffffff;fill-opacity:1;stroke:none;stroke-width:0.25036603"
       x="3.2044511"
       y="27.039639"
       id="text1353-9-5"
       transform="scale(0.94626511,1.0567863)"><tspan
         sodipodi:role="line"
         id="tspan1351-2-2"
         x="3.2044511"
         y="27.039639"
         style="font-style:normal;font-variant:normal;font-weight:normal;font-stretch:normal;font-size:6.3499999px;font-family:Helvetica;-inkscape-font-specification:Helvetica;fill:#ffffff;fill-opacity:1;stroke-width:0.25036603">Neckline</tspan></text>
  </g>
  <g
     inkscape:groupmode="layer"
     id="layer2"
     inkscape:label="Layer 2" />
</svg>
