<svg width="35" height="36" viewBox="0 0 35 36" fill="none" xmlns="http://www.w3.org/2000/svg">
<g clip-path="url(#clip0_163_52)">
<path d="M31.0739 5.53772H4.15255C3.95545 5.53772 3.76123 5.55214 3.57182 5.58099L3.56797 7.26742L0.943142 7.26357C0.526964 7.89222 0.305552 8.6297 0.306645 9.38363V26.6902C0.306645 27.7102 0.711837 28.6884 1.43308 29.4097C2.15433 30.1309 3.13255 30.5361 4.15255 30.5361H31.0739C32.0939 30.5361 33.0721 30.1309 33.7934 29.4097C34.5146 28.6884 34.9198 27.7102 34.9198 26.6902V9.38363C34.9198 8.36363 34.5146 7.38541 33.7934 6.66416C33.0721 5.94291 32.0939 5.53772 31.0739 5.53772Z" fill="#00247D"/>
<path d="M8.96028 25.7508L7.78536 26.8364L7.9017 25.2403L6.32007 24.999L7.64017 24.0952L6.84311 22.7078L8.37282 23.177L8.96028 21.6876L9.54871 23.177L11.0784 22.7078L10.2804 24.0952L11.6015 24.999L10.0198 25.2403L10.1362 26.8364L8.96028 25.7508ZM27.1803 9.92399L26.412 10.6336L26.488 9.58939L25.4525 9.43171L26.3169 8.8404L25.7957 7.93277L26.7957 8.23948L27.1803 7.2655L27.5658 8.23948L28.5667 7.93277L28.0446 8.8404L28.908 9.43171L27.8735 9.58939L27.9494 10.6336L27.1803 9.92399ZM23.3344 15.6928L22.5661 16.4034L22.6421 15.3592L21.6066 15.2015L22.4709 14.6093L21.9498 13.7016L22.9498 14.0083L23.3344 13.0344L23.7199 14.0083L24.7208 13.7016L24.1987 14.6093L25.0621 15.2015L24.0276 15.3592L24.1035 16.4034L23.3344 15.6928ZM31.9876 13.7699L31.2194 14.4804L31.2954 13.4363L30.2599 13.2786L31.1242 12.6863L30.6031 11.7787L31.6031 12.0854L31.9876 11.1114L32.3732 12.0854L33.3741 11.7787L32.852 12.6863L33.7154 13.2786L32.6809 13.4363L32.7568 14.4804L31.9876 13.7699ZM27.1803 27.2306L26.412 27.9411L26.488 26.8969L25.4525 26.7392L26.3169 26.147L25.7957 25.2393L26.7957 25.5461L27.1803 24.5721L27.5658 25.5461L28.5667 25.2393L28.0446 26.147L28.908 26.7392L27.8735 26.8969L27.9494 27.9411L27.1803 27.2306ZM30.1128 16.114L30.3954 16.687L31.0271 16.7783L30.5704 17.2235L30.6781 17.8533L30.1128 17.5562L29.5474 17.8533L29.6551 17.2235L29.1984 16.7783L29.8301 16.687L30.1128 16.114Z" fill="white"/>
<path d="M18.5747 18.0369V5.53772H4.15255C3.84488 5.53772 3.57182 5.58099 3.57182 5.58099L3.56797 7.26742L0.943141 7.26357C0.943141 7.26357 0.902759 7.3203 0.821033 7.46067C0.483279 8.0452 0.305836 8.70853 0.306643 9.38363V18.0369H18.5747Z" fill="#00247D"/>
<path d="M18.5747 5.53772H16.3335L11.8444 8.68079V5.53772H7.03698V8.00775L3.57181 5.58099C2.99382 5.66733 2.44363 5.88615 1.96423 6.22037L6.48509 9.38363H4.81596L1.23639 6.87513C1.13083 6.99852 1.03289 7.12824 0.943138 7.26357L3.97275 9.38363H0.306641V14.191H4.04198L0.306641 16.8505V18.0369H3.51028L7.03698 15.5678V18.0369H11.8444V14.8938L16.3325 18.0369H18.5747V16.0861L15.8681 14.191H18.5747V9.38363H15.8691L18.5747 7.48856V5.53772Z" fill="#EEEEEE"/>
<path d="M10.8829 5.53772H7.99845V10.3451H0.306641V13.2295H7.99845V18.0369H10.8829V13.2295H18.5747V10.3451H10.8829V5.53772Z" fill="#CF1B2B"/>
<path d="M18.576 5.53772H17.1713L11.8457 9.26729V9.38363H13.3561L18.576 5.72809V5.53772ZM1.96553 6.22037C1.69635 6.40715 1.45181 6.62714 1.2377 6.87513L4.81727 9.38363H6.48543L1.96553 6.22037ZM6.49697 14.191L1.01367 18.0369H2.67414L7.03828 14.9813V14.191H6.49697ZM18.576 17.8465V16.6735L15.031 14.191H13.3552L18.576 17.8465Z" fill="#CF1B2B"/>
</g>
<defs>
<clipPath id="clip0_163_52">
<rect width="34.6131" height="34.6131" fill="white" transform="translate(0.306641 0.730347)"/>
</clipPath>
</defs>
</svg>
