<svg width="15" height="14" viewBox="0 0 15 14" fill="none" xmlns="http://www.w3.org/2000/svg">
<path d="M9.75939 4.47339C10.7764 4.47339 11.7517 4.87739 12.4709 5.59651C13.19 6.31564 13.594 7.29098 13.594 8.30798V12.7817H11.0376V8.30798C11.0376 7.96898 10.9029 7.64386 10.6632 7.40415C10.4235 7.16445 10.0984 7.02978 9.75939 7.02978C9.42039 7.02978 9.09528 7.16445 8.85557 7.40415C8.61586 7.64386 8.4812 7.96898 8.4812 8.30798V12.7817H5.9248V8.30798C5.9248 7.29098 6.3288 6.31564 7.04793 5.59651C7.76705 4.87739 8.7424 4.47339 9.75939 4.47339V4.47339Z" stroke="#DDD9D6" stroke-width="1.2782" stroke-linecap="round" stroke-linejoin="round"/>
<path d="M3.3684 5.11255H0.812012V12.7817H3.3684V5.11255Z" stroke="#DDD9D6" stroke-width="1.2782" stroke-linecap="round" stroke-linejoin="round"/>
<path d="M2.09021 3.19543C2.79614 3.19543 3.3684 2.62316 3.3684 1.91723C3.3684 1.21131 2.79614 0.639038 2.09021 0.639038C1.38428 0.639038 0.812012 1.21131 0.812012 1.91723C0.812012 2.62316 1.38428 3.19543 2.09021 3.19543Z" stroke="#DDD9D6" stroke-width="1.2782" stroke-linecap="round" stroke-linejoin="round"/>
</svg>
