<svg width="17" height="14" viewBox="0 0 17 14" fill="none" xmlns="http://www.w3.org/2000/svg">
<path d="M15.4361 1.32064C14.8241 1.75233 14.1465 2.08251 13.4294 2.29846C13.0445 1.85589 12.5329 1.54221 11.9639 1.39984C11.3949 1.25747 10.796 1.29328 10.248 1.50243C9.70001 1.71158 9.22949 2.08397 8.90006 2.56925C8.57063 3.05453 8.39819 3.62927 8.40605 4.21575V4.85485C7.28292 4.88397 6.17002 4.63488 5.16647 4.12976C4.16292 3.62463 3.29986 2.87916 2.65417 1.95973C2.65417 1.95973 0.0977812 7.71161 5.84966 10.268C4.53346 11.1614 2.96551 11.6094 1.37598 11.5462C7.12786 14.7417 14.1579 11.5462 14.1579 4.19658C14.1573 4.01856 14.1402 3.84098 14.1068 3.66612C14.7591 3.02287 15.2194 2.21072 15.4361 1.32064V1.32064Z" stroke="#DDD9D6" stroke-width="1.2782" stroke-linecap="round" stroke-linejoin="round"/>
</svg>
