<svg width="15" height="15" viewBox="0 0 15 15" fill="none" xmlns="http://www.w3.org/2000/svg">
<path d="M10.8047 0.999939H4.41375C2.64893 0.999939 1.21826 2.43061 1.21826 4.19543V10.5864C1.21826 12.3512 2.64893 13.7819 4.41375 13.7819H10.8047C12.5695 13.7819 14.0002 12.3512 14.0002 10.5864V4.19543C14.0002 2.43061 12.5695 0.999939 10.8047 0.999939Z" stroke="#DDD9D6" stroke-width="1.2782" stroke-linecap="round" stroke-linejoin="round"/>
<path d="M10.1652 6.98836C10.2441 7.52025 10.1532 8.06346 9.90558 8.54074C9.65793 9.01801 9.26609 9.40505 8.7858 9.6468C8.3055 9.88854 7.76121 9.97269 7.23034 9.88726C6.69946 9.80184 6.20904 9.55119 5.82883 9.17098C5.44862 8.79077 5.19797 8.30035 5.11255 7.76947C5.02712 7.2386 5.11127 6.69431 5.35301 6.21401C5.59476 5.73372 5.9818 5.34188 6.45907 5.09423C6.93635 4.84658 7.47957 4.75573 8.01145 4.8346C8.554 4.91505 9.05628 5.16787 9.44411 5.5557C9.83195 5.94353 10.0848 6.44581 10.1652 6.98836Z" stroke="#DDD9D6" stroke-width="1.2782" stroke-linecap="round" stroke-linejoin="round"/>
<path d="M11.1245 3.87579H11.1311" stroke="#DDD9D6" stroke-width="1.2782" stroke-linecap="round" stroke-linejoin="round"/>
</svg>
